<svg fill="#FFFFFF" xmlns="http://www.w3.org/2000/svg"  viewBox="0 0 50 50" width="50px" height="50px"><path d="M 24.779297 2.7109375 C 24.429297 2.7109375 24.070703 2.7107031 23.720703 2.7207031 C 16.960703 2.8707031 10.479297 4.4497656 5.7792969 7.0097656 L 5.7792969 28.859375 C 5.7792969 39.269375 13.290547 42.339063 24.560547 47.289062 C 35.820547 42.339062 43.339844 39.269375 43.339844 28.859375 L 43.339844 7.9804688 L 43.339844 7.0097656 C 42.651712 6.6348522 41.94536 6.2875819 41.224609 5.9648438 C 41.218781 5.9622342 41.212862 5.9596375 41.207031 5.9570312 C 40.922193 5.8296944 40.625301 5.7248279 40.335938 5.6054688 C 39.85318 5.406333 39.372872 5.2026038 38.878906 5.0253906 C 38.582079 4.9189095 38.277083 4.8311401 37.976562 4.7324219 C 37.506639 4.5780503 37.038397 4.4207861 36.560547 4.2851562 C 36.199984 4.1828012 35.833274 4.0977564 35.46875 4.0058594 C 35.02906 3.8950456 34.591069 3.779406 34.146484 3.6835938 C 33.762542 3.6007935 33.375256 3.534714 32.988281 3.4628906 C 32.566253 3.3846322 32.145625 3.3036889 31.720703 3.2382812 C 31.296207 3.1728539 30.869954 3.1231477 30.443359 3.0703125 C 30.049509 3.0216075 29.656791 2.9717599 29.261719 2.9335938 C 28.839902 2.8927578 28.418525 2.8629974 27.996094 2.8339844 C 27.579003 2.8054018 27.163184 2.7770686 26.746094 2.7597656 C 26.327807 2.7423745 25.911603 2.7347253 25.494141 2.7285156 C 25.256139 2.7249564 25.016899 2.7109375 24.779297 2.7109375 z M 35.302734 6.9863281 C 36.471665 6.9997729 37.623153 7.0535332 38.763672 7.1230469 C 39.65189 7.4617571 40.521409 7.822549 41.349609 8.2304688 L 41.349609 28.859375 C 41.349609 37.359375 36.200313 39.989375 24.570312 45.109375 C 12.930312 39.999375 7.7890625 37.369375 7.7890625 28.859375 L 7.7890625 16.130859 C 15.409205 9.3045886 24.503002 7.1974338 33.130859 7 C 33.858359 6.9825 34.582734 6.9780469 35.302734 6.9863281 z M 24.859375 16.449219 C 23.119375 16.439219 21.470625 17.009844 20.640625 17.589844 L 20.640625 38.589844 L 23.880859 38.589844 L 23.880859 31.759766 C 26.270859 32.439766 30.880859 31.590078 30.880859 24.080078 C 30.880859 18.100078 27.749375 16.459219 24.859375 16.449219 z M 35.730469 16.509766 C 33.570469 16.669766 31.570312 18.100156 31.570312 20.660156 C 31.570313 25.440156 36.689453 24.930156 36.689453 27.660156 C 36.859453 30.050156 33.790234 29.879922 31.740234 28.169922 L 31.740234 31.080078 C 35.320234 33.290078 39.759687 31.930078 39.929688 27.830078 C 40.099688 22.710078 34.640625 23.220234 34.640625 20.490234 C 34.640625 18.620234 37.709922 18.450312 39.419922 20.320312 L 39.419922 17.589844 C 38.389922 16.759844 37.030469 16.399766 35.730469 16.509766 z M 9.2109375 16.740234 L 9.2109375 26.810547 C 9.2109375 34.320547 17.229688 31.930234 18.929688 30.740234 L 18.929688 16.740234 L 15.689453 16.740234 L 15.689453 28.859375 C 15.179453 29.199375 12.449219 30.050469 12.449219 26.980469 L 12.449219 16.740234 L 9.2109375 16.740234 z M 24.660156 19.060547 C 25.840156 18.960547 27.470703 19.600078 27.470703 24.080078 C 27.640703 30.910078 24.060938 29.199219 23.710938 29.199219 L 23.710938 19.300781 C 23.930937 19.210781 24.270156 19.090547 24.660156 19.060547 z"/></svg>